<svg aria-hidden="true" style="position: absolute; width: 0; height: 0; overflow: hidden;" version="1.1" xmlns="http://www.w3.org/2000/svg" xmlns:xlink="http://www.w3.org/1999/xlink">
<defs>
<symbol id="icon-shopping-cart" viewBox="0 0 26 28">
<path d="M10 24c0 1.094-0.906 2-2 2s-2-0.906-2-2 0.906-2 2-2 2 0.906 2 2zM24 24c0 1.094-0.906 2-2 2s-2-0.906-2-2 0.906-2 2-2 2 0.906 2 2zM26 7v8c0 0.5-0.391 0.938-0.891 1l-16.312 1.906c0.078 0.359 0.203 0.719 0.203 1.094 0 0.359-0.219 0.688-0.375 1h14.375c0.547 0 1 0.453 1 1s-0.453 1-1 1h-16c-0.547 0-1-0.453-1-1 0-0.484 0.703-1.656 0.953-2.141l-2.766-12.859h-3.187c-0.547 0-1-0.453-1-1s0.453-1 1-1h4c1.047 0 1.078 1.25 1.234 2h18.766c0.547 0 1 0.453 1 1z"></path>
</symbol>
<symbol id="icon-bell-o" viewBox="0 0 28 28">
<path d="M14.25 26.5c0-0.141-0.109-0.25-0.25-0.25-1.234 0-2.25-1.016-2.25-2.25 0-0.141-0.109-0.25-0.25-0.25s-0.25 0.109-0.25 0.25c0 1.516 1.234 2.75 2.75 2.75 0.141 0 0.25-0.109 0.25-0.25zM3.844 22h20.312c-2.797-3.156-4.156-7.438-4.156-13 0-2.016-1.906-5-6-5s-6 2.984-6 5c0 5.563-1.359 9.844-4.156 13zM27 22c0 1.094-0.906 2-2 2h-7c0 2.203-1.797 4-4 4s-4-1.797-4-4h-7c-1.094 0-2-0.906-2-2 2.312-1.953 5-5.453 5-13 0-3 2.484-6.281 6.625-6.891-0.078-0.187-0.125-0.391-0.125-0.609 0-0.828 0.672-1.5 1.5-1.5s1.5 0.672 1.5 1.5c0 0.219-0.047 0.422-0.125 0.609 4.141 0.609 6.625 3.891 6.625 6.891 0 7.547 2.688 11.047 5 13z"></path>
</symbol>
<symbol id="icon-quote-left" viewBox="0 0 26 28">
<path d="M12 15v6c0 1.656-1.344 3-3 3h-6c-1.656 0-3-1.344-3-3v-11c0-4.406 3.594-8 8-8h1c0.547 0 1 0.453 1 1v2c0 0.547-0.453 1-1 1h-1c-2.203 0-4 1.797-4 4v0.5c0 0.828 0.672 1.5 1.5 1.5h3.5c1.656 0 3 1.344 3 3zM26 15v6c0 1.656-1.344 3-3 3h-6c-1.656 0-3-1.344-3-3v-11c0-4.406 3.594-8 8-8h1c0.547 0 1 0.453 1 1v2c0 0.547-0.453 1-1 1h-1c-2.203 0-4 1.797-4 4v0.5c0 0.828 0.672 1.5 1.5 1.5h3.5c1.656 0 3 1.344 3 3z"></path>
</symbol>
<symbol id="icon-alarmclock" viewBox="0 0 30 32">
<path d="M15 2c-7.72 0-14 6.28-14 14s6.28 14 14 14 14-6.28 14-14-6.28-14-14-14zM15 29c-7.168 0-13-5.832-13-13s5.832-13 13-13 13 5.832 13 13-5.832 13-13 13zM7.5 0c-4.136 0-7.5 3.364-7.5 7.5v1.062c0 0.276 0.224 0.5 0.5 0.5s0.5-0.223 0.5-0.5v-1.062c0-3.584 2.916-6.5 6.5-6.5h0.875c0.276 0 0.5-0.224 0.5-0.5s-0.224-0.5-0.5-0.5h-0.875zM22.375 0h-0.875c-0.276 0-0.5 0.224-0.5 0.5s0.224 0.5 0.5 0.5h0.875c3.584 0 6.5 2.916 6.5 6.5v1.062c0 0.276 0.224 0.5 0.5 0.5s0.5-0.224 0.5-0.5v-1.062c0-4.136-3.364-7.5-7.5-7.5zM15 16.293v-6.974c0-0.276-0.224-0.5-0.5-0.5s-0.5 0.224-0.5 0.5v7.181c0 0.133 0.053 0.26 0.146 0.354l4.914 4.914c0.098 0.098 0.226 0.146 0.354 0.146s0.256-0.049 0.354-0.146c0.195-0.195 0.195-0.512 0-0.707l-4.768-4.768zM1.9 31.8l3-4c0.165-0.221 0.12-0.534-0.101-0.7-0.22-0.164-0.533-0.12-0.7 0.101l-3 4c-0.165 0.221-0.12 0.534 0.101 0.7 0.090 0.067 0.196 0.099 0.3 0.099 0.151 0 0.302-0.069 0.4-0.2zM25.9 27.2c-0.167-0.222-0.479-0.265-0.7-0.101-0.221 0.166-0.266 0.479-0.101 0.7l3 4c0.099 0.131 0.249 0.2 0.4 0.2 0.104 0 0.21-0.032 0.3-0.1 0.221-0.166 0.266-0.479 0.101-0.7l-3-3.999z"></path>
</symbol>
<symbol id="icon-menu" viewBox="0 0 32 32">
<path d="M2 6h28v6h-28zM2 14h28v6h-28zM2 22h28v6h-28z"></path>
</symbol>
</defs>
</svg>
